<mxfile host="65bd71144e">
    <diagram id="en83jWRrwsmB7WRG3aEX" name="Page-1">
        <mxGraphModel dx="1486" dy="1471" grid="1" gridSize="10" guides="1" tooltips="1" connect="1" arrows="1" fold="1" page="0" pageScale="1" pageWidth="827" pageHeight="1169" math="0" shadow="0">
            <root>
                <mxCell id="0"/>
                <mxCell id="1" parent="0"/>
                <mxCell id="ErPBGODxHNX1vI3Mqpvy-104" style="edgeStyle=orthogonalEdgeStyle;rounded=0;orthogonalLoop=1;jettySize=auto;html=1;fontSize=11;endArrow=none;endFill=0;" parent="1" source="ErPBGODxHNX1vI3Mqpvy-102" edge="1">
                    <mxGeometry relative="1" as="geometry">
                        <mxPoint x="299.9999999999998" y="-141" as="targetPoint"/>
                    </mxGeometry>
                </mxCell>
                <mxCell id="ErPBGODxHNX1vI3Mqpvy-88" style="edgeStyle=orthogonalEdgeStyle;rounded=0;orthogonalLoop=1;jettySize=auto;html=1;fontSize=11;endArrow=none;endFill=0;" parent="1" source="ErPBGODxHNX1vI3Mqpvy-86" edge="1">
                    <mxGeometry relative="1" as="geometry">
                        <mxPoint x="300" y="-381" as="targetPoint"/>
                    </mxGeometry>
                </mxCell>
                <mxCell id="ErPBGODxHNX1vI3Mqpvy-72" style="edgeStyle=orthogonalEdgeStyle;rounded=0;orthogonalLoop=1;jettySize=auto;html=1;fontSize=11;endArrow=none;endFill=0;" parent="1" source="ErPBGODxHNX1vI3Mqpvy-70" edge="1">
                    <mxGeometry relative="1" as="geometry">
                        <mxPoint x="300" y="-621" as="targetPoint"/>
                    </mxGeometry>
                </mxCell>
                <mxCell id="ErPBGODxHNX1vI3Mqpvy-49" style="edgeStyle=orthogonalEdgeStyle;rounded=0;orthogonalLoop=1;jettySize=auto;html=1;fontSize=11;endArrow=none;endFill=0;" parent="1" source="ErPBGODxHNX1vI3Mqpvy-46" edge="1">
                    <mxGeometry relative="1" as="geometry">
                        <mxPoint x="300" y="-861" as="targetPoint"/>
                    </mxGeometry>
                </mxCell>
                <mxCell id="ErPBGODxHNX1vI3Mqpvy-192" value="&lt;b&gt;the&lt;/b&gt; paritcipant&amp;nbsp;&lt;b&gt;of&lt;/b&gt; [official decision]&amp;nbsp;&lt;br&gt;&lt;br&gt;&lt;b&gt;is&lt;/b&gt; [proceedings participant]" style="text;html=1;strokeColor=none;fillColor=none;align=center;verticalAlign=middle;whiteSpace=wrap;rounded=0;fontSize=11;" parent="1" vertex="1">
                    <mxGeometry x="517" y="-363" width="200" height="35" as="geometry"/>
                </mxCell>
                <mxCell id="ErPBGODxHNX1vI3Mqpvy-174" style="edgeStyle=orthogonalEdgeStyle;rounded=0;orthogonalLoop=1;jettySize=auto;html=1;fontSize=11;endArrow=none;endFill=0;targetPerimeterSpacing=0;" parent="1" edge="1">
                    <mxGeometry relative="1" as="geometry">
                        <mxPoint x="851.9200000000001" y="-286.03" as="sourcePoint"/>
                        <mxPoint x="852.0853846153849" y="-230" as="targetPoint"/>
                        <Array as="points">
                            <mxPoint x="852.07" y="-258"/>
                            <mxPoint x="852.07" y="-258"/>
                        </Array>
                    </mxGeometry>
                </mxCell>
                <mxCell id="ErPBGODxHNX1vI3Mqpvy-16" value="" style="group" parent="1" vertex="1" connectable="0">
                    <mxGeometry x="260" y="-1110" width="200" height="1100" as="geometry"/>
                </mxCell>
                <mxCell id="ErPBGODxHNX1vI3Mqpvy-13" value="" style="rounded=1;whiteSpace=wrap;html=1;strokeColor=#000000;strokeWidth=2;fillColor=default;" parent="ErPBGODxHNX1vI3Mqpvy-16" vertex="1">
                    <mxGeometry width="199.99999999999994" height="1099.9999999999998" as="geometry"/>
                </mxCell>
                <mxCell id="ErPBGODxHNX1vI3Mqpvy-14" value="OFFICIAL DECISION" style="text;html=1;strokeColor=none;fillColor=none;align=center;verticalAlign=middle;whiteSpace=wrap;rounded=0;" parent="ErPBGODxHNX1vI3Mqpvy-16" vertex="1">
                    <mxGeometry width="198.97669130187603" height="113.79310344827587" as="geometry"/>
                </mxCell>
                <mxCell id="ErPBGODxHNX1vI3Mqpvy-22" value="&lt;font style=&quot;font-size: 11px&quot;&gt;date of publication {DAY}&lt;br&gt;tax amount {MONEY}&lt;br&gt;&lt;/font&gt;" style="text;html=1;strokeColor=none;fillColor=none;align=left;verticalAlign=middle;whiteSpace=wrap;rounded=0;" parent="ErPBGODxHNX1vI3Mqpvy-16" vertex="1">
                    <mxGeometry x="10" y="132.5301204819277" width="180" height="79.51807228915662" as="geometry"/>
                </mxCell>
                <mxCell id="ErPBGODxHNX1vI3Mqpvy-195" value="" style="endArrow=none;dashed=1;html=1;edgeStyle=orthogonalEdgeStyle;strokeWidth=1;arcSize=10;rounded=0;fontSize=5;" parent="ErPBGODxHNX1vI3Mqpvy-16" edge="1">
                    <mxGeometry width="50" height="50" relative="1" as="geometry">
                        <mxPoint y="79.51365461847404" as="sourcePoint"/>
                        <mxPoint x="200" y="92.7710843373494" as="targetPoint"/>
                        <Array as="points">
                            <mxPoint y="96.74698795180723"/>
                            <mxPoint x="200" y="96.74698795180723"/>
                        </Array>
                    </mxGeometry>
                </mxCell>
                <mxCell id="ErPBGODxHNX1vI3Mqpvy-18" value="" style="group" parent="1" vertex="1" connectable="0">
                    <mxGeometry x="522.35" y="-230" width="200" height="200" as="geometry"/>
                </mxCell>
                <mxCell id="ErPBGODxHNX1vI3Mqpvy-19" value="" style="rounded=1;whiteSpace=wrap;html=1;strokeColor=#000000;strokeWidth=2;fillColor=none;" parent="ErPBGODxHNX1vI3Mqpvy-18" vertex="1">
                    <mxGeometry width="200" height="200" as="geometry"/>
                </mxCell>
                <mxCell id="ErPBGODxHNX1vI3Mqpvy-20" value="COST OF PROCEEDINGS - PAID OFFICIAL DECISION" style="text;html=1;strokeColor=none;fillColor=none;align=center;verticalAlign=middle;whiteSpace=wrap;rounded=0;" parent="ErPBGODxHNX1vI3Mqpvy-18" vertex="1">
                    <mxGeometry x="4.825333333333333" y="9.99666666666667" width="190.35466666666665" height="50" as="geometry"/>
                </mxCell>
                <mxCell id="ErPBGODxHNX1vI3Mqpvy-27" value="" style="group" parent="ErPBGODxHNX1vI3Mqpvy-18" vertex="1" connectable="0">
                    <mxGeometry x="31.48933333333335" y="50" width="152" height="109" as="geometry"/>
                </mxCell>
                <mxCell id="ErPBGODxHNX1vI3Mqpvy-31" value="&lt;b&gt;the &lt;/b&gt;cost of proceedings&amp;nbsp;&lt;b&gt;of&lt;/b&gt; [official decision] &lt;b&gt;is &lt;/b&gt;paid" style="text;html=1;strokeColor=none;fillColor=none;align=center;verticalAlign=middle;whiteSpace=wrap;rounded=0;fontSize=11;" parent="ErPBGODxHNX1vI3Mqpvy-27" vertex="1">
                    <mxGeometry x="-25.333333333333332" y="79" width="177.33333333333331" height="30" as="geometry"/>
                </mxCell>
                <mxCell id="ErPBGODxHNX1vI3Mqpvy-33" value="&lt;font style=&quot;font-size: 11px&quot;&gt;cost of proceedings amount {MONEY}&lt;/font&gt;" style="text;html=1;strokeColor=none;fillColor=none;align=left;verticalAlign=middle;whiteSpace=wrap;rounded=0;" parent="ErPBGODxHNX1vI3Mqpvy-18" vertex="1">
                    <mxGeometry x="5" y="160" width="190" height="35.17" as="geometry"/>
                </mxCell>
                <mxCell id="ErPBGODxHNX1vI3Mqpvy-38" value="" style="endArrow=none;dashed=1;html=1;edgeStyle=orthogonalEdgeStyle;strokeWidth=1;arcSize=10;rounded=0;fontSize=11;entryX=1.001;entryY=0.843;entryDx=0;entryDy=0;entryPerimeter=0;exitX=0.004;exitY=0.847;exitDx=0;exitDy=0;exitPerimeter=0;" parent="ErPBGODxHNX1vI3Mqpvy-18" source="ErPBGODxHNX1vI3Mqpvy-19" target="ErPBGODxHNX1vI3Mqpvy-19" edge="1">
                    <mxGeometry width="50" height="50" relative="1" as="geometry">
                        <mxPoint x="30" y="169" as="sourcePoint"/>
                        <mxPoint x="140" y="170" as="targetPoint"/>
                        <Array as="points">
                            <mxPoint x="40" y="169"/>
                        </Array>
                    </mxGeometry>
                </mxCell>
                <mxCell id="ErPBGODxHNX1vI3Mqpvy-34" value="" style="group" parent="ErPBGODxHNX1vI3Mqpvy-18" vertex="1" connectable="0">
                    <mxGeometry x="64.64466094067257" y="50" width="70.71067811865473" height="79" as="geometry"/>
                </mxCell>
                <mxCell id="ErPBGODxHNX1vI3Mqpvy-35" value="" style="whiteSpace=wrap;html=1;aspect=fixed;strokeColor=#FF0000;strokeWidth=2;rotation=45;fillColor=none;" parent="ErPBGODxHNX1vI3Mqpvy-34" vertex="1">
                    <mxGeometry x="10.355339059327378" y="14" width="50" height="50" as="geometry"/>
                </mxCell>
                <mxCell id="ErPBGODxHNX1vI3Mqpvy-36" value="T11" style="text;html=1;resizable=0;points=[];autosize=0;align=center;verticalAlign=middle;spacingTop=0;fontSize=20;spacing=0;resizeWidth=1;resizeHeight=1;labelPosition=center;verticalLabelPosition=middle;strokeColor=none;" parent="ErPBGODxHNX1vI3Mqpvy-34" vertex="1">
                    <mxGeometry x="15.355339059327633" width="40" height="79" as="geometry"/>
                </mxCell>
                <mxCell id="ErPBGODxHNX1vI3Mqpvy-24" style="edgeStyle=orthogonalEdgeStyle;rounded=0;orthogonalLoop=1;jettySize=auto;html=1;fontSize=11;endArrow=none;endFill=0;exitX=0.5;exitY=1;exitDx=0;exitDy=0;entryX=0;entryY=0;entryDx=0;entryDy=0;" parent="1" source="ErPBGODxHNX1vI3Mqpvy-13" target="ErPBGODxHNX1vI3Mqpvy-4" edge="1">
                    <mxGeometry relative="1" as="geometry">
                        <mxPoint x="360" y="-77.00000000000023" as="sourcePoint"/>
                        <mxPoint x="360" y="3" as="targetPoint"/>
                    </mxGeometry>
                </mxCell>
                <mxCell id="ErPBGODxHNX1vI3Mqpvy-26" value="" style="group" parent="1" vertex="1" connectable="0">
                    <mxGeometry x="310" y="60" width="100" height="109" as="geometry"/>
                </mxCell>
                <mxCell id="ErPBGODxHNX1vI3Mqpvy-9" value="" style="group" parent="ErPBGODxHNX1vI3Mqpvy-26" vertex="1" connectable="0">
                    <mxGeometry x="14.644660940672566" width="70.71067811865473" height="79" as="geometry"/>
                </mxCell>
                <mxCell id="ErPBGODxHNX1vI3Mqpvy-4" value="" style="whiteSpace=wrap;html=1;aspect=fixed;strokeColor=#FF0000;strokeWidth=2;rotation=45;fillColor=none;" parent="ErPBGODxHNX1vI3Mqpvy-9" vertex="1">
                    <mxGeometry x="10.355339059327378" y="14" width="50" height="50" as="geometry"/>
                </mxCell>
                <mxCell id="ErPBGODxHNX1vI3Mqpvy-7" value="T1" style="text;html=1;resizable=0;points=[];autosize=0;align=center;verticalAlign=middle;spacingTop=0;fontSize=20;spacing=0;resizeWidth=1;resizeHeight=1;labelPosition=center;verticalLabelPosition=middle;strokeColor=none;" parent="ErPBGODxHNX1vI3Mqpvy-9" vertex="1">
                    <mxGeometry x="15.355339059327633" width="40" height="79" as="geometry"/>
                </mxCell>
                <mxCell id="ErPBGODxHNX1vI3Mqpvy-25" value="[official decision] &lt;b&gt;is &lt;/b&gt;created" style="text;html=1;strokeColor=none;fillColor=none;align=center;verticalAlign=middle;whiteSpace=wrap;rounded=0;fontSize=11;" parent="ErPBGODxHNX1vI3Mqpvy-26" vertex="1">
                    <mxGeometry y="79" width="100" height="30" as="geometry"/>
                </mxCell>
                <mxCell id="ErPBGODxHNX1vI3Mqpvy-39" value="" style="group" parent="1" vertex="1" connectable="0">
                    <mxGeometry x="0.35000000000002274" y="-950" width="200" height="200" as="geometry"/>
                </mxCell>
                <mxCell id="ErPBGODxHNX1vI3Mqpvy-40" value="" style="rounded=1;whiteSpace=wrap;html=1;strokeColor=#000000;strokeWidth=2;fillColor=none;" parent="ErPBGODxHNX1vI3Mqpvy-39" vertex="1">
                    <mxGeometry width="200" height="200" as="geometry"/>
                </mxCell>
                <mxCell id="ErPBGODxHNX1vI3Mqpvy-41" value="FACT SUBMITTED OFFICIAL DECISION" style="text;html=1;strokeColor=none;fillColor=none;align=center;verticalAlign=middle;whiteSpace=wrap;rounded=0;" parent="ErPBGODxHNX1vI3Mqpvy-39" vertex="1">
                    <mxGeometry x="-0.35" width="200.35" height="50" as="geometry"/>
                </mxCell>
                <mxCell id="ErPBGODxHNX1vI3Mqpvy-42" value="" style="group" parent="ErPBGODxHNX1vI3Mqpvy-39" vertex="1" connectable="0">
                    <mxGeometry x="31.48933333333335" y="50" width="152" height="109" as="geometry"/>
                </mxCell>
                <mxCell id="ErPBGODxHNX1vI3Mqpvy-43" value="&lt;b&gt;the &lt;/b&gt;fact&amp;nbsp;&lt;b&gt;of&lt;/b&gt; [official decision] &lt;b&gt;is &lt;/b&gt;submitted" style="text;html=1;strokeColor=none;fillColor=none;align=center;verticalAlign=middle;whiteSpace=wrap;rounded=0;fontSize=11;" parent="ErPBGODxHNX1vI3Mqpvy-42" vertex="1">
                    <mxGeometry x="-25.333333333333332" y="79" width="177.33333333333331" height="30" as="geometry"/>
                </mxCell>
                <mxCell id="ErPBGODxHNX1vI3Mqpvy-45" value="" style="group" parent="ErPBGODxHNX1vI3Mqpvy-39" vertex="1" connectable="0">
                    <mxGeometry x="64.64466094067257" y="50" width="70.71067811865473" height="79" as="geometry"/>
                </mxCell>
                <mxCell id="ErPBGODxHNX1vI3Mqpvy-46" value="" style="whiteSpace=wrap;html=1;aspect=fixed;strokeColor=#FF0000;strokeWidth=2;rotation=45;fillColor=none;" parent="ErPBGODxHNX1vI3Mqpvy-45" vertex="1">
                    <mxGeometry x="10.355339059327378" y="14" width="50" height="50" as="geometry"/>
                </mxCell>
                <mxCell id="ErPBGODxHNX1vI3Mqpvy-47" value="T2" style="text;html=1;resizable=0;points=[];autosize=0;align=center;verticalAlign=middle;spacingTop=0;fontSize=20;spacing=0;resizeWidth=1;resizeHeight=1;labelPosition=center;verticalLabelPosition=middle;strokeColor=none;" parent="ErPBGODxHNX1vI3Mqpvy-45" vertex="1">
                    <mxGeometry x="15.355339059327633" width="40" height="79" as="geometry"/>
                </mxCell>
                <mxCell id="ErPBGODxHNX1vI3Mqpvy-50" value="FACT" style="rounded=1;whiteSpace=wrap;html=1;fontSize=11;strokeColor=#000000;strokeWidth=2;fillColor=#B3B3B3;align=center;" parent="1" vertex="1">
                    <mxGeometry x="-340" y="-880" width="120" height="60" as="geometry"/>
                </mxCell>
                <mxCell id="ErPBGODxHNX1vI3Mqpvy-51" style="edgeStyle=orthogonalEdgeStyle;rounded=0;orthogonalLoop=1;jettySize=auto;html=1;fontSize=11;endArrow=none;endFill=0;" parent="1" source="ErPBGODxHNX1vI3Mqpvy-40" target="ErPBGODxHNX1vI3Mqpvy-50" edge="1">
                    <mxGeometry relative="1" as="geometry">
                        <Array as="points">
                            <mxPoint x="-130" y="-850"/>
                            <mxPoint x="-130" y="-850"/>
                        </Array>
                    </mxGeometry>
                </mxCell>
                <mxCell id="ErPBGODxHNX1vI3Mqpvy-52" value="&lt;b&gt;the&lt;/b&gt; fact &lt;b&gt;of&lt;/b&gt; [official decision] &lt;br&gt;&lt;br&gt;&lt;b&gt;is&lt;/b&gt; [fact]" style="text;html=1;strokeColor=none;fillColor=none;align=center;verticalAlign=middle;whiteSpace=wrap;rounded=0;fontSize=11;" parent="1" vertex="1">
                    <mxGeometry x="-175" y="-867.5" width="140" height="35" as="geometry"/>
                </mxCell>
                <mxCell id="ErPBGODxHNX1vI3Mqpvy-64" value="" style="group" parent="1" vertex="1" connectable="0">
                    <mxGeometry x="0.35000000000002274" y="-710" width="200" height="200" as="geometry"/>
                </mxCell>
                <mxCell id="ErPBGODxHNX1vI3Mqpvy-65" value="" style="rounded=1;whiteSpace=wrap;html=1;strokeColor=#000000;strokeWidth=2;fillColor=none;" parent="ErPBGODxHNX1vI3Mqpvy-64" vertex="1">
                    <mxGeometry width="200" height="200" as="geometry"/>
                </mxCell>
                <mxCell id="ErPBGODxHNX1vI3Mqpvy-66" value="EXPERT REPORT CREATED OFFICIAL DECISION" style="text;html=1;strokeColor=none;fillColor=none;align=center;verticalAlign=middle;whiteSpace=wrap;rounded=0;" parent="ErPBGODxHNX1vI3Mqpvy-64" vertex="1">
                    <mxGeometry x="-0.35" width="200.35" height="50" as="geometry"/>
                </mxCell>
                <mxCell id="ErPBGODxHNX1vI3Mqpvy-67" value="" style="group" parent="ErPBGODxHNX1vI3Mqpvy-64" vertex="1" connectable="0">
                    <mxGeometry x="31.48933333333335" y="50" width="152" height="109" as="geometry"/>
                </mxCell>
                <mxCell id="ErPBGODxHNX1vI3Mqpvy-68" value="&lt;b&gt;the &lt;/b&gt;expert report&amp;nbsp;&lt;b&gt;of&lt;/b&gt; [official decision] &lt;b&gt;is &lt;/b&gt;created" style="text;html=1;strokeColor=none;fillColor=none;align=center;verticalAlign=middle;whiteSpace=wrap;rounded=0;fontSize=11;" parent="ErPBGODxHNX1vI3Mqpvy-67" vertex="1">
                    <mxGeometry x="-25.333333333333332" y="79" width="177.33333333333331" height="30" as="geometry"/>
                </mxCell>
                <mxCell id="ErPBGODxHNX1vI3Mqpvy-69" value="" style="group" parent="ErPBGODxHNX1vI3Mqpvy-64" vertex="1" connectable="0">
                    <mxGeometry x="64.64466094067257" y="50" width="70.71067811865473" height="79" as="geometry"/>
                </mxCell>
                <mxCell id="ErPBGODxHNX1vI3Mqpvy-70" value="" style="whiteSpace=wrap;html=1;aspect=fixed;strokeColor=#FF0000;strokeWidth=2;rotation=45;fillColor=none;" parent="ErPBGODxHNX1vI3Mqpvy-69" vertex="1">
                    <mxGeometry x="10.355339059327378" y="14" width="50" height="50" as="geometry"/>
                </mxCell>
                <mxCell id="ErPBGODxHNX1vI3Mqpvy-71" value="T3" style="text;html=1;resizable=0;points=[];autosize=0;align=center;verticalAlign=middle;spacingTop=0;fontSize=20;spacing=0;resizeWidth=1;resizeHeight=1;labelPosition=center;verticalLabelPosition=middle;strokeColor=none;" parent="ErPBGODxHNX1vI3Mqpvy-69" vertex="1">
                    <mxGeometry x="15.355339059327633" width="40" height="79" as="geometry"/>
                </mxCell>
                <mxCell id="ErPBGODxHNX1vI3Mqpvy-73" value="EXPERT REPORT" style="rounded=1;whiteSpace=wrap;html=1;fontSize=11;strokeColor=#000000;strokeWidth=2;fillColor=#B3B3B3;align=center;" parent="1" vertex="1">
                    <mxGeometry x="-340" y="-640" width="120" height="60" as="geometry"/>
                </mxCell>
                <mxCell id="ErPBGODxHNX1vI3Mqpvy-75" value="&lt;b&gt;the&lt;/b&gt; expert report&amp;nbsp;&lt;b&gt;of&lt;/b&gt; [official decision] &lt;br&gt;&lt;br&gt;&lt;b&gt;is&lt;/b&gt; [expert report]" style="text;html=1;strokeColor=none;fillColor=none;align=center;verticalAlign=middle;whiteSpace=wrap;rounded=0;fontSize=11;" parent="1" vertex="1">
                    <mxGeometry x="-200" y="-627.5" width="190" height="35" as="geometry"/>
                </mxCell>
                <mxCell id="ErPBGODxHNX1vI3Mqpvy-77" style="edgeStyle=orthogonalEdgeStyle;rounded=0;orthogonalLoop=1;jettySize=auto;html=1;entryX=0.5;entryY=1;entryDx=0;entryDy=0;fontSize=11;endArrow=none;endFill=0;exitX=0.5;exitY=0;exitDx=0;exitDy=0;" parent="1" source="ErPBGODxHNX1vI3Mqpvy-79" target="ErPBGODxHNX1vI3Mqpvy-73" edge="1">
                    <mxGeometry relative="1" as="geometry"/>
                </mxCell>
                <mxCell id="ErPBGODxHNX1vI3Mqpvy-78" value="&lt;b&gt;the&lt;/b&gt; expert report&amp;nbsp; &amp;nbsp; &amp;nbsp;creator&amp;nbsp;&lt;b&gt;of&lt;/b&gt; &lt;br&gt;&amp;nbsp; &amp;nbsp; &amp;nbsp;[expert report]&amp;nbsp; &amp;nbsp; &amp;nbsp;is [expert]" style="text;html=1;strokeColor=none;fillColor=none;align=center;verticalAlign=middle;whiteSpace=wrap;rounded=0;fontSize=11;" parent="1" vertex="1">
                    <mxGeometry x="-394" y="-560" width="190" height="35" as="geometry"/>
                </mxCell>
                <mxCell id="ErPBGODxHNX1vI3Mqpvy-79" value="EXPERT" style="rounded=1;whiteSpace=wrap;html=1;fontSize=11;strokeColor=#000000;strokeWidth=2;fillColor=#B3B3B3;align=center;" parent="1" vertex="1">
                    <mxGeometry x="-340" y="-510" width="120" height="60" as="geometry"/>
                </mxCell>
                <mxCell id="ErPBGODxHNX1vI3Mqpvy-80" value="" style="group" parent="1" vertex="1" connectable="0">
                    <mxGeometry x="0.35000000000002274" y="-470" width="200" height="200" as="geometry"/>
                </mxCell>
                <mxCell id="ErPBGODxHNX1vI3Mqpvy-81" value="" style="rounded=1;whiteSpace=wrap;html=1;strokeColor=#000000;strokeWidth=2;fillColor=none;" parent="ErPBGODxHNX1vI3Mqpvy-80" vertex="1">
                    <mxGeometry width="200" height="200" as="geometry"/>
                </mxCell>
                <mxCell id="ErPBGODxHNX1vI3Mqpvy-82" value="TESTIMONY CREATED OFFICIAL DECISION" style="text;html=1;strokeColor=none;fillColor=none;align=center;verticalAlign=middle;whiteSpace=wrap;rounded=0;" parent="ErPBGODxHNX1vI3Mqpvy-80" vertex="1">
                    <mxGeometry x="-0.35" width="200.35" height="50" as="geometry"/>
                </mxCell>
                <mxCell id="ErPBGODxHNX1vI3Mqpvy-83" value="" style="group" parent="ErPBGODxHNX1vI3Mqpvy-80" vertex="1" connectable="0">
                    <mxGeometry x="31.48933333333335" y="50" width="152" height="109" as="geometry"/>
                </mxCell>
                <mxCell id="ErPBGODxHNX1vI3Mqpvy-84" value="&lt;b&gt;the &lt;/b&gt;testimony&amp;nbsp;&lt;b&gt;of&lt;/b&gt; [official decision] &lt;b&gt;is &lt;/b&gt;created" style="text;html=1;strokeColor=none;fillColor=none;align=center;verticalAlign=middle;whiteSpace=wrap;rounded=0;fontSize=11;" parent="ErPBGODxHNX1vI3Mqpvy-83" vertex="1">
                    <mxGeometry x="-25.333333333333332" y="79" width="177.33333333333331" height="30" as="geometry"/>
                </mxCell>
                <mxCell id="ErPBGODxHNX1vI3Mqpvy-85" value="" style="group" parent="ErPBGODxHNX1vI3Mqpvy-80" vertex="1" connectable="0">
                    <mxGeometry x="64.64466094067257" y="50" width="70.71067811865473" height="79" as="geometry"/>
                </mxCell>
                <mxCell id="ErPBGODxHNX1vI3Mqpvy-86" value="" style="whiteSpace=wrap;html=1;aspect=fixed;strokeColor=#FF0000;strokeWidth=2;rotation=45;fillColor=none;" parent="ErPBGODxHNX1vI3Mqpvy-85" vertex="1">
                    <mxGeometry x="10.355339059327378" y="14" width="50" height="50" as="geometry"/>
                </mxCell>
                <mxCell id="ErPBGODxHNX1vI3Mqpvy-87" value="T4" style="text;html=1;resizable=0;points=[];autosize=0;align=center;verticalAlign=middle;spacingTop=0;fontSize=20;spacing=0;resizeWidth=1;resizeHeight=1;labelPosition=center;verticalLabelPosition=middle;strokeColor=none;" parent="ErPBGODxHNX1vI3Mqpvy-85" vertex="1">
                    <mxGeometry x="15.355339059327633" y="-0.5" width="40" height="79" as="geometry"/>
                </mxCell>
                <mxCell id="ErPBGODxHNX1vI3Mqpvy-89" value="TESTIMONY" style="rounded=1;whiteSpace=wrap;html=1;fontSize=11;strokeColor=#000000;strokeWidth=2;fillColor=#B3B3B3;align=center;" parent="1" vertex="1">
                    <mxGeometry x="-340" y="-400" width="120" height="60" as="geometry"/>
                </mxCell>
                <mxCell id="ErPBGODxHNX1vI3Mqpvy-90" style="edgeStyle=orthogonalEdgeStyle;rounded=0;orthogonalLoop=1;jettySize=auto;html=1;fontSize=11;endArrow=none;endFill=0;" parent="1" source="ErPBGODxHNX1vI3Mqpvy-81" target="ErPBGODxHNX1vI3Mqpvy-89" edge="1">
                    <mxGeometry relative="1" as="geometry">
                        <Array as="points">
                            <mxPoint x="-130" y="-370"/>
                            <mxPoint x="-130" y="-370"/>
                        </Array>
                    </mxGeometry>
                </mxCell>
                <mxCell id="ErPBGODxHNX1vI3Mqpvy-91" value="&lt;b&gt;the&lt;/b&gt; testimony&amp;nbsp;&lt;b&gt;of&lt;/b&gt; [official decision] &lt;br&gt;&lt;br&gt;&lt;b&gt;is&lt;/b&gt; [testimony]" style="text;html=1;strokeColor=none;fillColor=none;align=center;verticalAlign=middle;whiteSpace=wrap;rounded=0;fontSize=11;" parent="1" vertex="1">
                    <mxGeometry x="-200" y="-387.5" width="190" height="35" as="geometry"/>
                </mxCell>
                <mxCell id="ErPBGODxHNX1vI3Mqpvy-92" style="edgeStyle=orthogonalEdgeStyle;rounded=0;orthogonalLoop=1;jettySize=auto;html=1;entryX=0.5;entryY=1;entryDx=0;entryDy=0;fontSize=11;endArrow=none;endFill=0;exitX=0.5;exitY=0;exitDx=0;exitDy=0;" parent="1" source="ErPBGODxHNX1vI3Mqpvy-94" target="ErPBGODxHNX1vI3Mqpvy-89" edge="1">
                    <mxGeometry relative="1" as="geometry"/>
                </mxCell>
                <mxCell id="ErPBGODxHNX1vI3Mqpvy-93" value="&lt;b&gt;the&lt;/b&gt;&amp;nbsp;testimony&amp;nbsp; &amp;nbsp; attestant&amp;nbsp;&lt;b&gt;of&lt;/b&gt; [testimony]&amp;nbsp; &amp;nbsp; &amp;nbsp; &amp;nbsp;is [witness]" style="text;html=1;strokeColor=none;fillColor=none;align=center;verticalAlign=middle;whiteSpace=wrap;rounded=0;fontSize=11;" parent="1" vertex="1">
                    <mxGeometry x="-380" y="-320" width="190" height="35" as="geometry"/>
                </mxCell>
                <mxCell id="ErPBGODxHNX1vI3Mqpvy-94" value="WITNESS" style="rounded=1;whiteSpace=wrap;html=1;fontSize=11;strokeColor=#000000;strokeWidth=2;fillColor=#B3B3B3;align=center;" parent="1" vertex="1">
                    <mxGeometry x="-340" y="-270" width="120" height="60" as="geometry"/>
                </mxCell>
                <mxCell id="ErPBGODxHNX1vI3Mqpvy-74" style="edgeStyle=orthogonalEdgeStyle;rounded=0;orthogonalLoop=1;jettySize=auto;html=1;fontSize=11;endArrow=none;endFill=0;targetPerimeterSpacing=0;" parent="1" source="ErPBGODxHNX1vI3Mqpvy-65" target="ErPBGODxHNX1vI3Mqpvy-73" edge="1">
                    <mxGeometry relative="1" as="geometry">
                        <Array as="points">
                            <mxPoint x="-130" y="-610"/>
                            <mxPoint x="-130" y="-610"/>
                        </Array>
                    </mxGeometry>
                </mxCell>
                <mxCell id="ErPBGODxHNX1vI3Mqpvy-96" value="" style="group" parent="1" vertex="1" connectable="0">
                    <mxGeometry x="0.35000000000002274" y="-230" width="200" height="200" as="geometry"/>
                </mxCell>
                <mxCell id="ErPBGODxHNX1vI3Mqpvy-97" value="" style="rounded=1;whiteSpace=wrap;html=1;strokeColor=#000000;strokeWidth=2;fillColor=none;" parent="ErPBGODxHNX1vI3Mqpvy-96" vertex="1">
                    <mxGeometry width="200" height="200" as="geometry"/>
                </mxCell>
                <mxCell id="ErPBGODxHNX1vI3Mqpvy-98" value="SPECIAL RECORD CREATED OFFICIAL DECISION" style="text;html=1;strokeColor=none;fillColor=none;align=center;verticalAlign=middle;whiteSpace=wrap;rounded=0;" parent="ErPBGODxHNX1vI3Mqpvy-96" vertex="1">
                    <mxGeometry x="-0.35" width="200.35" height="50" as="geometry"/>
                </mxCell>
                <mxCell id="ErPBGODxHNX1vI3Mqpvy-99" value="" style="group" parent="ErPBGODxHNX1vI3Mqpvy-96" vertex="1" connectable="0">
                    <mxGeometry x="31.48933333333335" y="50" width="152" height="109" as="geometry"/>
                </mxCell>
                <mxCell id="ErPBGODxHNX1vI3Mqpvy-100" value="&lt;b&gt;the &lt;/b&gt;special record&amp;nbsp;&lt;b&gt;of&lt;/b&gt; [official decision] &lt;b&gt;is &lt;/b&gt;created" style="text;html=1;strokeColor=none;fillColor=none;align=center;verticalAlign=middle;whiteSpace=wrap;rounded=0;fontSize=11;" parent="ErPBGODxHNX1vI3Mqpvy-99" vertex="1">
                    <mxGeometry x="-25.333333333333332" y="79" width="177.33333333333331" height="30" as="geometry"/>
                </mxCell>
                <mxCell id="ErPBGODxHNX1vI3Mqpvy-101" value="" style="group" parent="ErPBGODxHNX1vI3Mqpvy-96" vertex="1" connectable="0">
                    <mxGeometry x="64.64466094067257" y="50" width="70.71067811865473" height="79" as="geometry"/>
                </mxCell>
                <mxCell id="ErPBGODxHNX1vI3Mqpvy-102" value="" style="whiteSpace=wrap;html=1;aspect=fixed;strokeColor=#FF0000;strokeWidth=2;rotation=45;fillColor=none;" parent="ErPBGODxHNX1vI3Mqpvy-101" vertex="1">
                    <mxGeometry x="10.355339059327378" y="14" width="50" height="50" as="geometry"/>
                </mxCell>
                <mxCell id="ErPBGODxHNX1vI3Mqpvy-103" value="T5" style="text;html=1;resizable=0;points=[];autosize=0;align=center;verticalAlign=middle;spacingTop=0;fontSize=20;spacing=0;resizeWidth=1;resizeHeight=1;labelPosition=center;verticalLabelPosition=middle;strokeColor=none;" parent="ErPBGODxHNX1vI3Mqpvy-101" vertex="1">
                    <mxGeometry x="15.355339059327633" width="40" height="79" as="geometry"/>
                </mxCell>
                <mxCell id="ErPBGODxHNX1vI3Mqpvy-105" value="SPECIAL RECORD" style="rounded=1;whiteSpace=wrap;html=1;fontSize=11;strokeColor=#000000;strokeWidth=2;fillColor=#B3B3B3;align=center;" parent="1" vertex="1">
                    <mxGeometry x="-340" y="-160" width="120" height="60" as="geometry"/>
                </mxCell>
                <mxCell id="ErPBGODxHNX1vI3Mqpvy-106" style="edgeStyle=orthogonalEdgeStyle;rounded=0;orthogonalLoop=1;jettySize=auto;html=1;fontSize=11;endArrow=none;endFill=0;" parent="1" source="ErPBGODxHNX1vI3Mqpvy-97" target="ErPBGODxHNX1vI3Mqpvy-105" edge="1">
                    <mxGeometry relative="1" as="geometry">
                        <Array as="points">
                            <mxPoint x="-130" y="-130"/>
                            <mxPoint x="-130" y="-130"/>
                        </Array>
                    </mxGeometry>
                </mxCell>
                <mxCell id="ErPBGODxHNX1vI3Mqpvy-107" value="&lt;b&gt;the&lt;/b&gt; special record&amp;nbsp;&lt;b&gt;of&lt;/b&gt; [official decision] &lt;br&gt;&lt;br&gt;&lt;b&gt;is&lt;/b&gt; [special records]" style="text;html=1;strokeColor=none;fillColor=none;align=center;verticalAlign=middle;whiteSpace=wrap;rounded=0;fontSize=11;" parent="1" vertex="1">
                    <mxGeometry x="-220" y="-147.5" width="220" height="35" as="geometry"/>
                </mxCell>
                <mxCell id="ErPBGODxHNX1vI3Mqpvy-109" style="edgeStyle=orthogonalEdgeStyle;rounded=0;orthogonalLoop=1;jettySize=auto;html=1;entryX=1;entryY=0.94;entryDx=0;entryDy=0;entryPerimeter=0;fontSize=11;endArrow=none;endFill=0;targetPerimeterSpacing=0;" parent="1" source="ErPBGODxHNX1vI3Mqpvy-35" target="ErPBGODxHNX1vI3Mqpvy-13" edge="1">
                    <mxGeometry relative="1" as="geometry">
                        <Array as="points">
                            <mxPoint x="459" y="-141"/>
                        </Array>
                    </mxGeometry>
                </mxCell>
                <mxCell id="ErPBGODxHNX1vI3Mqpvy-110" value="" style="group" parent="1" vertex="1" connectable="0">
                    <mxGeometry x="522.35" y="-950" width="200" height="200" as="geometry"/>
                </mxCell>
                <mxCell id="ErPBGODxHNX1vI3Mqpvy-111" value="" style="rounded=1;whiteSpace=wrap;html=1;strokeColor=#000000;strokeWidth=2;fillColor=none;" parent="ErPBGODxHNX1vI3Mqpvy-110" vertex="1">
                    <mxGeometry width="200" height="200" as="geometry"/>
                </mxCell>
                <mxCell id="ErPBGODxHNX1vI3Mqpvy-112" value="TAX NEGOTIATED OFFICIAL DECISION" style="text;html=1;strokeColor=none;fillColor=none;align=center;verticalAlign=middle;whiteSpace=wrap;rounded=0;" parent="ErPBGODxHNX1vI3Mqpvy-110" vertex="1">
                    <mxGeometry x="-0.35" width="200.35" height="50" as="geometry"/>
                </mxCell>
                <mxCell id="ErPBGODxHNX1vI3Mqpvy-113" value="" style="group" parent="ErPBGODxHNX1vI3Mqpvy-110" vertex="1" connectable="0">
                    <mxGeometry x="31.48933333333335" y="50" width="152" height="109" as="geometry"/>
                </mxCell>
                <mxCell id="ErPBGODxHNX1vI3Mqpvy-114" value="&lt;b&gt;the &lt;/b&gt;tax&amp;nbsp;&lt;b&gt;of&lt;/b&gt; [official decision] &lt;b&gt;is &lt;/b&gt;negotiated" style="text;html=1;strokeColor=none;fillColor=none;align=center;verticalAlign=middle;whiteSpace=wrap;rounded=0;fontSize=11;" parent="ErPBGODxHNX1vI3Mqpvy-113" vertex="1">
                    <mxGeometry x="-25.333333333333332" y="79" width="177.33333333333331" height="30" as="geometry"/>
                </mxCell>
                <mxCell id="ErPBGODxHNX1vI3Mqpvy-151" value="&lt;font style=&quot;font-size: 11px&quot;&gt;negotiated tax&amp;nbsp;amount {MONEY}&lt;/font&gt;" style="text;html=1;strokeColor=none;fillColor=none;align=left;verticalAlign=middle;whiteSpace=wrap;rounded=0;" parent="ErPBGODxHNX1vI3Mqpvy-110" vertex="1">
                    <mxGeometry x="9.799999999999955" y="159" width="180" height="35.17" as="geometry"/>
                </mxCell>
                <mxCell id="ErPBGODxHNX1vI3Mqpvy-152" value="" style="endArrow=none;dashed=1;html=1;edgeStyle=orthogonalEdgeStyle;strokeWidth=1;arcSize=10;rounded=0;fontSize=11;entryX=1.001;entryY=0.843;entryDx=0;entryDy=0;entryPerimeter=0;exitX=0.004;exitY=0.847;exitDx=0;exitDy=0;exitPerimeter=0;" parent="ErPBGODxHNX1vI3Mqpvy-110" edge="1">
                    <mxGeometry width="50" height="50" relative="1" as="geometry">
                        <mxPoint x="0.599999999999568" y="169.39999999999986" as="sourcePoint"/>
                        <mxPoint x="199.9999999999999" y="168.60000000000014" as="targetPoint"/>
                        <Array as="points">
                            <mxPoint x="39.799999999999955" y="169"/>
                        </Array>
                    </mxGeometry>
                </mxCell>
                <mxCell id="ErPBGODxHNX1vI3Mqpvy-115" value="" style="group" parent="ErPBGODxHNX1vI3Mqpvy-110" vertex="1" connectable="0">
                    <mxGeometry x="64.64466094067257" y="50" width="70.71067811865473" height="79" as="geometry"/>
                </mxCell>
                <mxCell id="ErPBGODxHNX1vI3Mqpvy-116" value="" style="whiteSpace=wrap;html=1;aspect=fixed;strokeColor=#FF0000;strokeWidth=2;rotation=45;fillColor=none;" parent="ErPBGODxHNX1vI3Mqpvy-115" vertex="1">
                    <mxGeometry x="10.355339059327378" y="14" width="50" height="50" as="geometry"/>
                </mxCell>
                <mxCell id="ErPBGODxHNX1vI3Mqpvy-117" value="T6" style="text;html=1;resizable=0;points=[];autosize=0;align=center;verticalAlign=middle;spacingTop=0;fontSize=20;spacing=0;resizeWidth=1;resizeHeight=1;labelPosition=center;verticalLabelPosition=middle;strokeColor=none;" parent="ErPBGODxHNX1vI3Mqpvy-115" vertex="1">
                    <mxGeometry x="15.355339059327633" width="40" height="79" as="geometry"/>
                </mxCell>
                <mxCell id="ErPBGODxHNX1vI3Mqpvy-124" style="edgeStyle=orthogonalEdgeStyle;rounded=0;orthogonalLoop=1;jettySize=auto;html=1;entryX=0;entryY=1;entryDx=0;entryDy=0;fontSize=11;endArrow=none;endFill=0;targetPerimeterSpacing=0;exitX=1.002;exitY=0.237;exitDx=0;exitDy=0;exitPerimeter=0;" parent="1" source="ErPBGODxHNX1vI3Mqpvy-13" target="ErPBGODxHNX1vI3Mqpvy-116" edge="1">
                    <mxGeometry relative="1" as="geometry">
                        <Array as="points">
                            <mxPoint x="460" y="-861"/>
                        </Array>
                    </mxGeometry>
                </mxCell>
                <mxCell id="ErPBGODxHNX1vI3Mqpvy-139" value="" style="group" parent="1" vertex="1" connectable="0">
                    <mxGeometry x="522.3499999999999" y="-710" width="200" height="200" as="geometry"/>
                </mxCell>
                <mxCell id="ErPBGODxHNX1vI3Mqpvy-140" value="" style="rounded=1;whiteSpace=wrap;html=1;strokeColor=#000000;strokeWidth=2;fillColor=none;" parent="ErPBGODxHNX1vI3Mqpvy-139" vertex="1">
                    <mxGeometry width="200" height="200" as="geometry"/>
                </mxCell>
                <mxCell id="ErPBGODxHNX1vI3Mqpvy-141" value="PARTICIPANT&amp;nbsp;SUMMONED PROCEEDINGS PARTICIPANT" style="text;html=1;strokeColor=none;fillColor=none;align=center;verticalAlign=middle;whiteSpace=wrap;rounded=0;" parent="ErPBGODxHNX1vI3Mqpvy-139" vertex="1">
                    <mxGeometry x="-0.35" width="200.35" height="50" as="geometry"/>
                </mxCell>
                <mxCell id="ErPBGODxHNX1vI3Mqpvy-142" value="" style="group" parent="ErPBGODxHNX1vI3Mqpvy-139" vertex="1" connectable="0">
                    <mxGeometry x="31.48933333333335" y="50" width="152" height="109" as="geometry"/>
                </mxCell>
                <mxCell id="ErPBGODxHNX1vI3Mqpvy-143" value="&lt;b&gt;the&amp;nbsp;&lt;/b&gt;participant&lt;b&gt;&amp;nbsp;of&amp;nbsp;&lt;/b&gt;&amp;nbsp;[proceedings participant] &lt;b&gt;is &lt;/b&gt;summoned" style="text;html=1;strokeColor=none;fillColor=none;align=center;verticalAlign=middle;whiteSpace=wrap;rounded=0;fontSize=11;" parent="ErPBGODxHNX1vI3Mqpvy-142" vertex="1">
                    <mxGeometry x="-25.333333333333332" y="79" width="177.33333333333331" height="30" as="geometry"/>
                </mxCell>
                <mxCell id="ErPBGODxHNX1vI3Mqpvy-144" value="" style="group" parent="ErPBGODxHNX1vI3Mqpvy-139" vertex="1" connectable="0">
                    <mxGeometry x="64.47466094067256" y="50" width="70.71067811865473" height="79" as="geometry"/>
                </mxCell>
                <mxCell id="ErPBGODxHNX1vI3Mqpvy-145" value="" style="whiteSpace=wrap;html=1;aspect=fixed;strokeColor=#FF0000;strokeWidth=2;rotation=45;fillColor=none;" parent="ErPBGODxHNX1vI3Mqpvy-144" vertex="1">
                    <mxGeometry x="10.355339059327378" y="14" width="50" height="50" as="geometry"/>
                </mxCell>
                <mxCell id="ErPBGODxHNX1vI3Mqpvy-146" value="T7" style="text;html=1;resizable=0;points=[];autosize=0;align=center;verticalAlign=middle;spacingTop=0;fontSize=20;spacing=0;resizeWidth=1;resizeHeight=1;labelPosition=center;verticalLabelPosition=middle;strokeColor=none;" parent="ErPBGODxHNX1vI3Mqpvy-144" vertex="1">
                    <mxGeometry x="15.355339059327633" width="40" height="79" as="geometry"/>
                </mxCell>
                <mxCell id="ErPBGODxHNX1vI3Mqpvy-157" value="" style="group" parent="1" vertex="1" connectable="0">
                    <mxGeometry x="982.35" y="-710" width="200" height="200" as="geometry"/>
                </mxCell>
                <mxCell id="ErPBGODxHNX1vI3Mqpvy-158" value="" style="rounded=1;whiteSpace=wrap;html=1;strokeColor=#000000;strokeWidth=2;fillColor=none;" parent="ErPBGODxHNX1vI3Mqpvy-157" vertex="1">
                    <mxGeometry width="200" height="200" as="geometry"/>
                </mxCell>
                <mxCell id="ErPBGODxHNX1vI3Mqpvy-159" value="PARTICIPANT&amp;nbsp;ATTACHED PROCEEDINGS PARTICIPANT" style="text;html=1;strokeColor=none;fillColor=none;align=center;verticalAlign=middle;whiteSpace=wrap;rounded=0;" parent="ErPBGODxHNX1vI3Mqpvy-157" vertex="1">
                    <mxGeometry x="-0.35" width="200.35" height="50" as="geometry"/>
                </mxCell>
                <mxCell id="ErPBGODxHNX1vI3Mqpvy-160" value="" style="group" parent="ErPBGODxHNX1vI3Mqpvy-157" vertex="1" connectable="0">
                    <mxGeometry x="31.48933333333335" y="50" width="152" height="109" as="geometry"/>
                </mxCell>
                <mxCell id="ErPBGODxHNX1vI3Mqpvy-161" value="&lt;b&gt;the &lt;/b&gt;participant&amp;nbsp;&lt;b&gt;of&lt;/b&gt; [proceedings participant] &lt;b&gt;is &lt;/b&gt;attached" style="text;html=1;strokeColor=none;fillColor=none;align=center;verticalAlign=middle;whiteSpace=wrap;rounded=0;fontSize=11;" parent="ErPBGODxHNX1vI3Mqpvy-160" vertex="1">
                    <mxGeometry x="-25.333333333333332" y="79" width="177.33333333333331" height="30" as="geometry"/>
                </mxCell>
                <mxCell id="ErPBGODxHNX1vI3Mqpvy-162" value="" style="group" parent="ErPBGODxHNX1vI3Mqpvy-157" vertex="1" connectable="0">
                    <mxGeometry x="64.64466094067257" y="51" width="70.71067811865473" height="79" as="geometry"/>
                </mxCell>
                <mxCell id="ErPBGODxHNX1vI3Mqpvy-163" value="" style="whiteSpace=wrap;html=1;aspect=fixed;strokeColor=#FF0000;strokeWidth=2;rotation=45;fillColor=none;" parent="ErPBGODxHNX1vI3Mqpvy-162" vertex="1">
                    <mxGeometry x="10.355339059327378" y="14" width="50" height="50" as="geometry"/>
                </mxCell>
                <mxCell id="ErPBGODxHNX1vI3Mqpvy-164" value="T8" style="text;html=1;resizable=0;points=[];autosize=0;align=center;verticalAlign=middle;spacingTop=0;fontSize=20;spacing=0;resizeWidth=1;resizeHeight=1;labelPosition=center;verticalLabelPosition=middle;strokeColor=none;" parent="ErPBGODxHNX1vI3Mqpvy-162" vertex="1">
                    <mxGeometry x="15.355339059327633" width="40" height="79" as="geometry"/>
                </mxCell>
                <mxCell id="ErPBGODxHNX1vI3Mqpvy-169" value="" style="group" parent="1" vertex="1" connectable="0">
                    <mxGeometry x="799" y="-234" width="110" height="109" as="geometry"/>
                </mxCell>
                <mxCell id="ErPBGODxHNX1vI3Mqpvy-170" value="" style="group" parent="ErPBGODxHNX1vI3Mqpvy-169" vertex="1" connectable="0">
                    <mxGeometry x="17.644660940672566" width="70.71067811865473" height="79" as="geometry"/>
                </mxCell>
                <mxCell id="ErPBGODxHNX1vI3Mqpvy-171" value="" style="whiteSpace=wrap;html=1;aspect=fixed;strokeColor=#FF0000;strokeWidth=2;rotation=45;fillColor=none;" parent="ErPBGODxHNX1vI3Mqpvy-170" vertex="1">
                    <mxGeometry x="10.355339059327378" y="14" width="50" height="50" as="geometry"/>
                </mxCell>
                <mxCell id="ErPBGODxHNX1vI3Mqpvy-172" value="T9" style="text;html=1;resizable=0;points=[];autosize=0;align=center;verticalAlign=middle;spacingTop=0;fontSize=20;spacing=0;resizeWidth=1;resizeHeight=1;labelPosition=center;verticalLabelPosition=middle;strokeColor=none;" parent="ErPBGODxHNX1vI3Mqpvy-170" vertex="1">
                    <mxGeometry x="15.355339059327633" width="40" height="79" as="geometry"/>
                </mxCell>
                <mxCell id="ErPBGODxHNX1vI3Mqpvy-173" value="[proceedings participant] &lt;b&gt;is &lt;/b&gt;participated" style="text;html=1;strokeColor=none;fillColor=none;align=center;verticalAlign=middle;whiteSpace=wrap;rounded=0;fontSize=11;" parent="ErPBGODxHNX1vI3Mqpvy-169" vertex="1">
                    <mxGeometry x="-20" y="79" width="140" height="30" as="geometry"/>
                </mxCell>
                <mxCell id="ErPBGODxHNX1vI3Mqpvy-175" value="" style="group" parent="1" vertex="1" connectable="0">
                    <mxGeometry x="982.35" y="-430" width="200" height="205.17000000000002" as="geometry"/>
                </mxCell>
                <mxCell id="ErPBGODxHNX1vI3Mqpvy-176" value="" style="rounded=1;whiteSpace=wrap;html=1;strokeColor=#000000;strokeWidth=2;fillColor=none;" parent="ErPBGODxHNX1vI3Mqpvy-175" vertex="1">
                    <mxGeometry width="200" height="200" as="geometry"/>
                </mxCell>
                <mxCell id="ErPBGODxHNX1vI3Mqpvy-177" value="ENTITLEMENT TO COMPENSATION DECIDED PROCEEDINGS&amp;nbsp;PARTICIPANT" style="text;html=1;strokeColor=none;fillColor=none;align=center;verticalAlign=middle;whiteSpace=wrap;rounded=0;" parent="ErPBGODxHNX1vI3Mqpvy-175" vertex="1">
                    <mxGeometry x="-0.35" width="200.35" height="50" as="geometry"/>
                </mxCell>
                <mxCell id="ErPBGODxHNX1vI3Mqpvy-178" value="" style="group" parent="ErPBGODxHNX1vI3Mqpvy-175" vertex="1" connectable="0">
                    <mxGeometry x="34.48933333333335" y="51" width="152" height="109" as="geometry"/>
                </mxCell>
                <mxCell id="ErPBGODxHNX1vI3Mqpvy-179" value="&lt;b&gt;the &lt;/b&gt;entitlement to compensation&amp;nbsp;&lt;b&gt;of&amp;nbsp;&lt;/b&gt;&amp;nbsp;&lt;br&gt;[proceedings&amp;nbsp;participant] &lt;b&gt;is &lt;/b&gt;decided" style="text;html=1;strokeColor=none;fillColor=none;align=center;verticalAlign=middle;whiteSpace=wrap;rounded=0;fontSize=11;" parent="ErPBGODxHNX1vI3Mqpvy-178" vertex="1">
                    <mxGeometry x="-25.333333333333332" y="79" width="177.33333333333331" height="30" as="geometry"/>
                </mxCell>
                <mxCell id="tsVIiR8CICvJxlIZKjgv-5" value="&lt;font style=&quot;font-size: 11px&quot;&gt;compensation amount {MONEY}&lt;/font&gt;" style="text;html=1;strokeColor=none;fillColor=none;align=left;verticalAlign=middle;whiteSpace=wrap;rounded=0;" parent="ErPBGODxHNX1vI3Mqpvy-175" vertex="1">
                    <mxGeometry x="20" y="164.83" width="180" height="35.17" as="geometry"/>
                </mxCell>
                <mxCell id="tsVIiR8CICvJxlIZKjgv-6" value="" style="endArrow=none;dashed=1;html=1;edgeStyle=orthogonalEdgeStyle;strokeWidth=1;arcSize=10;rounded=0;fontSize=11;entryX=1.001;entryY=0.843;entryDx=0;entryDy=0;entryPerimeter=0;exitX=0.004;exitY=0.847;exitDx=0;exitDy=0;exitPerimeter=0;" parent="ErPBGODxHNX1vI3Mqpvy-175" edge="1">
                    <mxGeometry width="50" height="50" relative="1" as="geometry">
                        <mxPoint x="-0.35000000000059117" y="170.79999999999984" as="sourcePoint"/>
                        <mxPoint x="199.04999999999995" y="170.0000000000001" as="targetPoint"/>
                        <Array as="points">
                            <mxPoint x="38.84999999999991" y="170.39999999999998"/>
                        </Array>
                    </mxGeometry>
                </mxCell>
                <mxCell id="ErPBGODxHNX1vI3Mqpvy-180" value="" style="group" parent="ErPBGODxHNX1vI3Mqpvy-175" vertex="1" connectable="0">
                    <mxGeometry x="64.64466094067257" y="51" width="70.71067811865473" height="79" as="geometry"/>
                </mxCell>
                <mxCell id="ErPBGODxHNX1vI3Mqpvy-181" value="" style="whiteSpace=wrap;html=1;aspect=fixed;strokeColor=#FF0000;strokeWidth=2;rotation=45;fillColor=none;" parent="ErPBGODxHNX1vI3Mqpvy-180" vertex="1">
                    <mxGeometry x="10.355339059327378" y="14" width="50" height="50" as="geometry"/>
                </mxCell>
                <mxCell id="ErPBGODxHNX1vI3Mqpvy-182" value="T10" style="text;html=1;resizable=0;points=[];autosize=0;align=center;verticalAlign=middle;spacingTop=0;fontSize=20;spacing=0;resizeWidth=1;resizeHeight=1;labelPosition=center;verticalLabelPosition=middle;strokeColor=none;" parent="ErPBGODxHNX1vI3Mqpvy-180" vertex="1">
                    <mxGeometry x="15.355339059327633" width="40" height="79" as="geometry"/>
                </mxCell>
                <mxCell id="ErPBGODxHNX1vI3Mqpvy-185" style="edgeStyle=orthogonalEdgeStyle;rounded=0;orthogonalLoop=1;jettySize=auto;html=1;entryX=0;entryY=1;entryDx=0;entryDy=0;fontSize=11;endArrow=none;endFill=0;targetPerimeterSpacing=0;exitX=1;exitY=0.842;exitDx=0;exitDy=0;exitPerimeter=0;" parent="1" source="ErPBGODxHNX1vI3Mqpvy-154" target="ErPBGODxHNX1vI3Mqpvy-181" edge="1">
                    <mxGeometry relative="1" as="geometry">
                        <mxPoint x="982.0025184764072" y="-341" as="sourcePoint"/>
                        <Array as="points">
                            <mxPoint x="942" y="-340"/>
                            <mxPoint x="1033" y="-340"/>
                        </Array>
                    </mxGeometry>
                </mxCell>
                <mxCell id="ErPBGODxHNX1vI3Mqpvy-189" style="edgeStyle=orthogonalEdgeStyle;rounded=0;orthogonalLoop=1;jettySize=auto;html=1;entryX=-0.005;entryY=0.144;entryDx=0;entryDy=0;entryPerimeter=0;fontSize=11;endArrow=none;endFill=0;targetPerimeterSpacing=0;" parent="1" source="ErPBGODxHNX1vI3Mqpvy-145" target="ErPBGODxHNX1vI3Mqpvy-154" edge="1">
                    <mxGeometry relative="1" as="geometry">
                        <Array as="points">
                            <mxPoint x="791" y="-621"/>
                        </Array>
                    </mxGeometry>
                </mxCell>
                <mxCell id="ErPBGODxHNX1vI3Mqpvy-191" style="edgeStyle=orthogonalEdgeStyle;rounded=0;orthogonalLoop=1;jettySize=auto;html=1;fontSize=11;endArrow=none;endFill=0;targetPerimeterSpacing=0;entryX=0;entryY=0.806;entryDx=0;entryDy=0;entryPerimeter=0;" parent="1" edge="1">
                    <mxGeometry relative="1" as="geometry">
                        <mxPoint x="461" y="-344.0399999999998" as="sourcePoint"/>
                        <mxPoint x="837.9999999999998" y="-345.00000000000006" as="targetPoint"/>
                        <Array as="points">
                            <mxPoint x="838" y="-344.04"/>
                        </Array>
                    </mxGeometry>
                </mxCell>
                <mxCell id="ErPBGODxHNX1vI3Mqpvy-153" value="" style="group" parent="1" vertex="1" connectable="0">
                    <mxGeometry x="777" y="-680" width="150" height="400" as="geometry"/>
                </mxCell>
                <mxCell id="ErPBGODxHNX1vI3Mqpvy-154" value="" style="rounded=1;whiteSpace=wrap;html=1;strokeWidth=2;" parent="ErPBGODxHNX1vI3Mqpvy-153" vertex="1">
                    <mxGeometry width="149.99999999999997" height="399.99999999999994" as="geometry"/>
                </mxCell>
                <mxCell id="ErPBGODxHNX1vI3Mqpvy-155" value="PROCEEDINGS PARTICIPANT" style="text;html=1;strokeColor=none;fillColor=none;align=center;verticalAlign=middle;whiteSpace=wrap;rounded=0;" parent="ErPBGODxHNX1vI3Mqpvy-153" vertex="1">
                    <mxGeometry y="23.52941176470588" width="149.23251847640702" height="41.37931034482759" as="geometry"/>
                </mxCell>
                <mxCell id="tsVIiR8CICvJxlIZKjgv-2" value="TAX SUBJECT" style="rounded=1;whiteSpace=wrap;html=1;fontSize=11;strokeColor=#000000;strokeWidth=2;fillColor=#B3B3B3;align=center;" parent="1" vertex="1">
                    <mxGeometry x="602.35" y="-1083.1" width="120" height="60" as="geometry"/>
                </mxCell>
                <mxCell id="tsVIiR8CICvJxlIZKjgv-4" value="&lt;b&gt;the&lt;/b&gt; proposer&amp;nbsp;&lt;br&gt;&lt;b&gt;of&lt;/b&gt; [official decision]&lt;br&gt;&lt;br&gt;&lt;b&gt;is&lt;/b&gt; [tax subject]" style="text;html=1;strokeColor=none;fillColor=none;align=center;verticalAlign=middle;whiteSpace=wrap;rounded=0;fontSize=11;" parent="1" vertex="1">
                    <mxGeometry x="481" y="-1078.5" width="105" height="35" as="geometry"/>
                </mxCell>
                <mxCell id="tsVIiR8CICvJxlIZKjgv-10" style="edgeStyle=orthogonalEdgeStyle;rounded=0;orthogonalLoop=1;jettySize=auto;html=1;endArrow=none;endFill=0;" parent="1" source="tsVIiR8CICvJxlIZKjgv-8" target="ErPBGODxHNX1vI3Mqpvy-14" edge="1">
                    <mxGeometry relative="1" as="geometry">
                        <Array as="points">
                            <mxPoint x="280" y="-1050"/>
                            <mxPoint x="280" y="-1050"/>
                        </Array>
                    </mxGeometry>
                </mxCell>
                <mxCell id="tsVIiR8CICvJxlIZKjgv-8" value="TAX ADMINISTRATOR" style="rounded=1;whiteSpace=wrap;html=1;fontSize=11;strokeColor=#000000;strokeWidth=2;fillColor=#B3B3B3;align=center;" parent="1" vertex="1">
                    <mxGeometry x="-7.105427357601002e-15" y="-1083.1" width="120" height="60" as="geometry"/>
                </mxCell>
                <mxCell id="tsVIiR8CICvJxlIZKjgv-9" value="&lt;b&gt;the&lt;/b&gt; creator&amp;nbsp;&lt;br&gt;&lt;b&gt;of&lt;/b&gt; [official decision]&lt;br&gt;&lt;br&gt;&lt;b&gt;is&lt;/b&gt; [tax administrator]" style="text;html=1;strokeColor=none;fillColor=none;align=center;verticalAlign=middle;whiteSpace=wrap;rounded=0;fontSize=11;" parent="1" vertex="1">
                    <mxGeometry x="140" y="-1075.5" width="110" height="35" as="geometry"/>
                </mxCell>
                <mxCell id="tsVIiR8CICvJxlIZKjgv-11" style="edgeStyle=orthogonalEdgeStyle;rounded=0;orthogonalLoop=1;jettySize=auto;html=1;endArrow=none;endFill=0;" parent="1" source="ErPBGODxHNX1vI3Mqpvy-14" target="tsVIiR8CICvJxlIZKjgv-2" edge="1">
                    <mxGeometry relative="1" as="geometry">
                        <Array as="points">
                            <mxPoint x="550" y="-1053"/>
                            <mxPoint x="550" y="-1053"/>
                        </Array>
                    </mxGeometry>
                </mxCell>
                <mxCell id="qWvREllTrMf0N_qrTUVB-1" value="" style="endArrow=none;startArrow=open;html=1;rounded=0;endFill=0;startFill=0;" parent="1" edge="1">
                    <mxGeometry width="50" height="50" relative="1" as="geometry">
                        <mxPoint x="-115" y="-850" as="sourcePoint"/>
                        <mxPoint x="-105" y="-850" as="targetPoint"/>
                    </mxGeometry>
                </mxCell>
                <mxCell id="qWvREllTrMf0N_qrTUVB-2" value="" style="endArrow=none;startArrow=open;html=1;rounded=0;endFill=0;startFill=0;" parent="1" edge="1">
                    <mxGeometry width="50" height="50" relative="1" as="geometry">
                        <mxPoint x="180" y="-1053.14" as="sourcePoint"/>
                        <mxPoint x="190" y="-1053.14" as="targetPoint"/>
                        <Array as="points"/>
                    </mxGeometry>
                </mxCell>
                <mxCell id="qWvREllTrMf0N_qrTUVB-3" value="" style="endArrow=none;startArrow=open;html=1;rounded=0;endFill=0;startFill=0;" parent="1" edge="1">
                    <mxGeometry width="50" height="50" relative="1" as="geometry">
                        <mxPoint x="-115" y="-610" as="sourcePoint"/>
                        <mxPoint x="-105" y="-610" as="targetPoint"/>
                    </mxGeometry>
                </mxCell>
                <mxCell id="qWvREllTrMf0N_qrTUVB-4" value="" style="endArrow=none;startArrow=open;html=1;rounded=0;endFill=0;startFill=0;jumpSize=5;" parent="1" edge="1">
                    <mxGeometry width="50" height="50" relative="1" as="geometry">
                        <mxPoint x="-115" y="-370" as="sourcePoint"/>
                        <mxPoint x="-105" y="-370" as="targetPoint"/>
                    </mxGeometry>
                </mxCell>
                <mxCell id="qWvREllTrMf0N_qrTUVB-5" value="" style="endArrow=none;startArrow=open;html=1;rounded=0;endFill=0;startFill=0;" parent="1" edge="1">
                    <mxGeometry width="50" height="50" relative="1" as="geometry">
                        <mxPoint x="-115" y="-130" as="sourcePoint"/>
                        <mxPoint x="-110" y="-130" as="targetPoint"/>
                    </mxGeometry>
                </mxCell>
                <mxCell id="qWvREllTrMf0N_qrTUVB-6" value="" style="endArrow=none;startArrow=open;html=1;rounded=0;endFill=0;startFill=0;" parent="1" edge="1">
                    <mxGeometry width="50" height="50" relative="1" as="geometry">
                        <mxPoint x="-280.1" y="-555" as="sourcePoint"/>
                        <mxPoint x="-280.1" y="-560" as="targetPoint"/>
                        <Array as="points"/>
                    </mxGeometry>
                </mxCell>
                <mxCell id="qWvREllTrMf0N_qrTUVB-7" value="" style="endArrow=none;startArrow=open;html=1;rounded=0;endFill=0;startFill=0;" parent="1" edge="1">
                    <mxGeometry width="50" height="50" relative="1" as="geometry">
                        <mxPoint x="-280.04" y="-315" as="sourcePoint"/>
                        <mxPoint x="-280.04" y="-320" as="targetPoint"/>
                        <Array as="points"/>
                    </mxGeometry>
                </mxCell>
                <mxCell id="qWvREllTrMf0N_qrTUVB-8" value="" style="endArrow=none;startArrow=open;html=1;rounded=0;endFill=0;startFill=0;" parent="1" edge="1">
                    <mxGeometry width="50" height="50" relative="1" as="geometry">
                        <mxPoint x="621" y="-344" as="sourcePoint"/>
                        <mxPoint x="612" y="-344" as="targetPoint"/>
                        <Array as="points"/>
                    </mxGeometry>
                </mxCell>
                <mxCell id="_IfIvlY3I_eyqPrVyip0-1" style="rounded=0;orthogonalLoop=1;jettySize=auto;html=1;fontSize=11;endArrow=none;endFill=0;targetPerimeterSpacing=0;entryX=0.992;entryY=0.151;entryDx=0;entryDy=0;entryPerimeter=0;exitX=0;exitY=1;exitDx=0;exitDy=0;" parent="1" source="ErPBGODxHNX1vI3Mqpvy-163" target="ErPBGODxHNX1vI3Mqpvy-154" edge="1">
                    <mxGeometry relative="1" as="geometry">
                        <mxPoint x="1082" y="-620" as="sourcePoint"/>
                        <mxPoint x="941" y="-620" as="targetPoint"/>
                    </mxGeometry>
                </mxCell>
                <mxCell id="_IfIvlY3I_eyqPrVyip0-3" value="" style="endArrow=open;startArrow=none;html=1;rounded=0;endFill=0;startFill=0;" parent="1" edge="1">
                    <mxGeometry width="50" height="50" relative="1" as="geometry">
                        <mxPoint x="530" y="-1053" as="sourcePoint"/>
                        <mxPoint x="540" y="-1053" as="targetPoint"/>
                        <Array as="points"/>
                    </mxGeometry>
                </mxCell>
                <mxCell id="2" value="" style="whiteSpace=wrap;html=1;" vertex="1" parent="1">
                    <mxGeometry x="100" y="-1010" width="120" height="60" as="geometry"/>
                </mxCell>
            </root>
        </mxGraphModel>
    </diagram>
</mxfile>